<mxfile host="app.diagrams.net" modified="2022-05-12T05:47:30.071Z" agent="5.0 (X11; Linux x86_64) AppleWebKit/537.36 (KHTML, like Gecko) Chrome/101.0.4951.54 Safari/537.36" etag="K2UtyZMCbJTrrbSwHoh1" version="18.0.3" type="github">
  <diagram id="tdP_eMAhvCi1at6QCo9Z" name="Page-1">
    <mxGraphModel dx="2177" dy="3106" grid="1" gridSize="10" guides="1" tooltips="1" connect="1" arrows="1" fold="1" page="1" pageScale="1" pageWidth="827" pageHeight="1169" math="0" shadow="0">
      <root>
        <mxCell id="0" />
        <mxCell id="1" parent="0" />
        <mxCell id="xi5EtomZvlvR07hGLBp--1" value="hf_prod_db_subnet_1a /1b&lt;br&gt;10.10.3.0/24&amp;nbsp; /&amp;nbsp; 10.10.4.0/24" style="points=[[0,0],[0.25,0],[0.5,0],[0.75,0],[1,0],[1,0.25],[1,0.5],[1,0.75],[1,1],[0.75,1],[0.5,1],[0.25,1],[0,1],[0,0.75],[0,0.5],[0,0.25]];outlineConnect=0;gradientColor=none;html=1;whiteSpace=wrap;fontSize=12;fontStyle=0;container=1;pointerEvents=0;collapsible=0;recursiveResize=0;shape=mxgraph.aws4.group;grIcon=mxgraph.aws4.group_security_group;grStroke=0;strokeColor=#147EBA;fillColor=#E6F2F8;verticalAlign=top;align=left;spacingLeft=30;fontColor=#147EBA;dashed=0;" vertex="1" parent="1">
          <mxGeometry x="160" y="400" width="440" height="184" as="geometry" />
        </mxCell>
        <mxCell id="xi5EtomZvlvR07hGLBp--2" value="hf_prod_app_subnet_1a / 1b&amp;nbsp; 10.10.1.0/24&amp;nbsp; /&amp;nbsp; 10.10.2.0/24" style="points=[[0,0],[0.25,0],[0.5,0],[0.75,0],[1,0],[1,0.25],[1,0.5],[1,0.75],[1,1],[0.75,1],[0.5,1],[0.25,1],[0,1],[0,0.75],[0,0.5],[0,0.25]];outlineConnect=0;gradientColor=none;html=1;whiteSpace=wrap;fontSize=12;fontStyle=0;container=1;pointerEvents=0;collapsible=0;recursiveResize=0;shape=mxgraph.aws4.group;grIcon=mxgraph.aws4.group_security_group;grStroke=0;strokeColor=#147EBA;fillColor=#E6F2F8;verticalAlign=top;align=left;spacingLeft=30;fontColor=#147EBA;dashed=0;" vertex="1" parent="1">
          <mxGeometry x="-280" y="100" width="1320" height="220" as="geometry" />
        </mxCell>
        <mxCell id="xi5EtomZvlvR07hGLBp--3" value="Port : Mysql" style="rounded=0;orthogonalLoop=1;jettySize=auto;html=1;strokeWidth=2;" edge="1" parent="1" source="xi5EtomZvlvR07hGLBp--4" target="xi5EtomZvlvR07hGLBp--7">
          <mxGeometry relative="1" as="geometry" />
        </mxCell>
        <mxCell id="xi5EtomZvlvR07hGLBp--4" value="IronBank" style="rounded=0;whiteSpace=wrap;html=1;" vertex="1" parent="1">
          <mxGeometry x="-200" y="200" width="120" height="60" as="geometry" />
        </mxCell>
        <mxCell id="xi5EtomZvlvR07hGLBp--5" value="Port : Mysql" style="rounded=0;orthogonalLoop=1;jettySize=auto;html=1;strokeWidth=2;" edge="1" parent="1" source="xi5EtomZvlvR07hGLBp--6" target="xi5EtomZvlvR07hGLBp--7">
          <mxGeometry relative="1" as="geometry" />
        </mxCell>
        <mxCell id="xi5EtomZvlvR07hGLBp--6" value="Nimbus" style="rounded=0;whiteSpace=wrap;html=1;" vertex="1" parent="1">
          <mxGeometry x="840" y="200" width="120" height="60" as="geometry" />
        </mxCell>
        <mxCell id="xi5EtomZvlvR07hGLBp--7" value="hf-db-prod" style="sketch=0;outlineConnect=0;fontColor=#232F3E;gradientColor=none;strokeColor=#ffffff;fillColor=#232F3E;dashed=0;verticalLabelPosition=middle;verticalAlign=bottom;align=center;html=1;whiteSpace=wrap;fontSize=10;fontStyle=1;spacing=3;shape=mxgraph.aws4.productIcon;prIcon=mxgraph.aws4.rds;" vertex="1" parent="1">
          <mxGeometry x="340" y="480" width="80" height="100" as="geometry" />
        </mxCell>
        <mxCell id="xi5EtomZvlvR07hGLBp--8" value="Auto Scaling group" style="points=[[0,0],[0.25,0],[0.5,0],[0.75,0],[1,0],[1,0.25],[1,0.5],[1,0.75],[1,1],[0.75,1],[0.5,1],[0.25,1],[0,1],[0,0.75],[0,0.5],[0,0.25]];outlineConnect=0;gradientColor=none;html=1;whiteSpace=wrap;fontSize=12;fontStyle=0;container=1;pointerEvents=0;collapsible=0;recursiveResize=0;shape=mxgraph.aws4.groupCenter;grIcon=mxgraph.aws4.group_auto_scaling_group;grStroke=1;strokeColor=#D86613;fillColor=none;verticalAlign=top;align=center;fontColor=#D86613;dashed=1;spacingTop=25;" vertex="1" parent="1">
          <mxGeometry x="-205" y="150" width="130" height="130" as="geometry" />
        </mxCell>
        <mxCell id="xi5EtomZvlvR07hGLBp--9" value="Auto Scaling group" style="points=[[0,0],[0.25,0],[0.5,0],[0.75,0],[1,0],[1,0.25],[1,0.5],[1,0.75],[1,1],[0.75,1],[0.5,1],[0.25,1],[0,1],[0,0.75],[0,0.5],[0,0.25]];outlineConnect=0;gradientColor=none;html=1;whiteSpace=wrap;fontSize=12;fontStyle=0;container=1;pointerEvents=0;collapsible=0;recursiveResize=0;shape=mxgraph.aws4.groupCenter;grIcon=mxgraph.aws4.group_auto_scaling_group;grStroke=1;strokeColor=#D86613;fillColor=none;verticalAlign=top;align=center;fontColor=#D86613;dashed=1;spacingTop=25;" vertex="1" parent="1">
          <mxGeometry x="835" y="150" width="130" height="130" as="geometry" />
        </mxCell>
        <mxCell id="xi5EtomZvlvR07hGLBp--10" value="Port : SSH" style="edgeStyle=none;rounded=0;orthogonalLoop=1;jettySize=auto;html=1;entryX=0.25;entryY=0;entryDx=0;entryDy=0;strokeColor=#0066CC;strokeWidth=2;" edge="1" parent="1" source="xi5EtomZvlvR07hGLBp--33" target="xi5EtomZvlvR07hGLBp--8">
          <mxGeometry relative="1" as="geometry" />
        </mxCell>
        <mxCell id="xi5EtomZvlvR07hGLBp--11" value="Port : SSH" style="edgeStyle=none;rounded=0;orthogonalLoop=1;jettySize=auto;html=1;entryX=0.75;entryY=0;entryDx=0;entryDy=0;strokeColor=#0066CC;strokeWidth=2;" edge="1" parent="1" source="xi5EtomZvlvR07hGLBp--33" target="xi5EtomZvlvR07hGLBp--9">
          <mxGeometry relative="1" as="geometry" />
        </mxCell>
        <mxCell id="xi5EtomZvlvR07hGLBp--12" value="hf_prod_vpc 10.10.0.0/16" style="points=[[0,0],[0.25,0],[0.5,0],[0.75,0],[1,0],[1,0.25],[1,0.5],[1,0.75],[1,1],[0.75,1],[0.5,1],[0.25,1],[0,1],[0,0.75],[0,0.5],[0,0.25]];outlineConnect=0;gradientColor=none;html=1;whiteSpace=wrap;fontSize=12;fontStyle=0;container=1;pointerEvents=0;collapsible=0;recursiveResize=0;shape=mxgraph.aws4.group;grIcon=mxgraph.aws4.group_vpc;strokeColor=#248814;fillColor=none;verticalAlign=top;align=left;spacingLeft=30;fontColor=#AAB7B8;dashed=0;" vertex="1" parent="1">
          <mxGeometry x="-400" y="-230" width="1560" height="870" as="geometry" />
        </mxCell>
        <mxCell id="xi5EtomZvlvR07hGLBp--13" value="hf_prod_igw" style="sketch=0;outlineConnect=0;fontColor=#232F3E;gradientColor=none;strokeColor=#232F3E;fillColor=#ffffff;dashed=0;verticalLabelPosition=bottom;verticalAlign=top;align=center;html=1;fontSize=12;fontStyle=0;aspect=fixed;shape=mxgraph.aws4.resourceIcon;resIcon=mxgraph.aws4.internet_gateway;" vertex="1" parent="xi5EtomZvlvR07hGLBp--12">
          <mxGeometry x="1493" y="7" width="60" height="60" as="geometry" />
        </mxCell>
        <mxCell id="xi5EtomZvlvR07hGLBp--14" value="hf_prod_rtb_private" style="sketch=0;outlineConnect=0;fontColor=#232F3E;gradientColor=none;strokeColor=#232F3E;fillColor=#ffffff;dashed=0;verticalLabelPosition=bottom;verticalAlign=top;align=center;html=1;fontSize=12;fontStyle=0;aspect=fixed;shape=mxgraph.aws4.resourceIcon;resIcon=mxgraph.aws4.route_table;" vertex="1" parent="xi5EtomZvlvR07hGLBp--12">
          <mxGeometry x="730" y="470" width="60" height="60" as="geometry" />
        </mxCell>
        <mxCell id="xi5EtomZvlvR07hGLBp--15" value="hf_prod_rtb_private" style="sketch=0;outlineConnect=0;fontColor=#232F3E;gradientColor=none;strokeColor=#232F3E;fillColor=#ffffff;dashed=0;verticalLabelPosition=bottom;verticalAlign=top;align=center;html=1;fontSize=12;fontStyle=0;aspect=fixed;shape=mxgraph.aws4.resourceIcon;resIcon=mxgraph.aws4.route_table;" vertex="1" parent="xi5EtomZvlvR07hGLBp--12">
          <mxGeometry x="910" y="730" width="60" height="60" as="geometry" />
        </mxCell>
        <mxCell id="xi5EtomZvlvR07hGLBp--16" value="hs-msk-prod" style="sketch=0;points=[[0,0,0],[0.25,0,0],[0.5,0,0],[0.75,0,0],[1,0,0],[0,1,0],[0.25,1,0],[0.5,1,0],[0.75,1,0],[1,1,0],[0,0.25,0],[0,0.5,0],[0,0.75,0],[1,0.25,0],[1,0.5,0],[1,0.75,0]];outlineConnect=0;fontColor=#232F3E;gradientColor=#945DF2;gradientDirection=north;fillColor=#5A30B5;strokeColor=#ffffff;dashed=0;verticalLabelPosition=bottom;verticalAlign=top;align=center;html=1;fontSize=12;fontStyle=0;aspect=fixed;shape=mxgraph.aws4.resourceIcon;resIcon=mxgraph.aws4.managed_streaming_for_kafka;" vertex="1" parent="xi5EtomZvlvR07hGLBp--12">
          <mxGeometry x="721" y="340" width="78" height="78" as="geometry" />
        </mxCell>
        <mxCell id="xi5EtomZvlvR07hGLBp--17" value="PWA-prod" style="sketch=0;points=[[0,0,0],[0.25,0,0],[0.5,0,0],[0.75,0,0],[1,0,0],[0,1,0],[0.25,1,0],[0.5,1,0],[0.75,1,0],[1,1,0],[0,0.25,0],[0,0.5,0],[0,0.75,0],[1,0.25,0],[1,0.5,0],[1,0.75,0]];outlineConnect=0;fontColor=#232F3E;gradientColor=#F54749;gradientDirection=north;fillColor=#C7131F;strokeColor=#ffffff;dashed=0;verticalLabelPosition=bottom;verticalAlign=top;align=center;html=1;fontSize=12;fontStyle=0;aspect=fixed;shape=mxgraph.aws4.resourceIcon;resIcon=mxgraph.aws4.amplify;" vertex="1" parent="xi5EtomZvlvR07hGLBp--12">
          <mxGeometry x="1360" y="152" width="78" height="78" as="geometry" />
        </mxCell>
        <mxCell id="xi5EtomZvlvR07hGLBp--18" value="hf_mgmt_vpc 10.50.0.0/16" style="points=[[0,0],[0.25,0],[0.5,0],[0.75,0],[1,0],[1,0.25],[1,0.5],[1,0.75],[1,1],[0.75,1],[0.5,1],[0.25,1],[0,1],[0,0.75],[0,0.5],[0,0.25]];outlineConnect=0;gradientColor=none;html=1;whiteSpace=wrap;fontSize=12;fontStyle=0;container=1;pointerEvents=0;collapsible=0;recursiveResize=0;shape=mxgraph.aws4.group;grIcon=mxgraph.aws4.group_vpc;strokeColor=#248814;fillColor=none;verticalAlign=top;align=left;spacingLeft=30;fontColor=#AAB7B8;dashed=0;" vertex="1" parent="1">
          <mxGeometry x="-400" y="-1560" width="1560" height="1039" as="geometry" />
        </mxCell>
        <mxCell id="xi5EtomZvlvR07hGLBp--19" value="hf_mgmt_public_subnet_1a /1b&lt;br&gt;10.50.1.0/24&amp;nbsp; /&amp;nbsp; 10.50.2.0/24" style="points=[[0,0],[0.25,0],[0.5,0],[0.75,0],[1,0],[1,0.25],[1,0.5],[1,0.75],[1,1],[0.75,1],[0.5,1],[0.25,1],[0,1],[0,0.75],[0,0.5],[0,0.25]];outlineConnect=0;gradientColor=none;html=1;whiteSpace=wrap;fontSize=12;fontStyle=0;container=1;pointerEvents=0;collapsible=0;recursiveResize=0;shape=mxgraph.aws4.group;grIcon=mxgraph.aws4.group_security_group;grStroke=0;strokeColor=#248814;fillColor=#E9F3E6;verticalAlign=top;align=left;spacingLeft=30;fontColor=#248814;dashed=0;" vertex="1" parent="xi5EtomZvlvR07hGLBp--18">
          <mxGeometry x="560" y="10" width="400" height="390" as="geometry" />
        </mxCell>
        <mxCell id="xi5EtomZvlvR07hGLBp--20" value="&lt;div&gt;hf_mgmt_nat_1a&lt;/div&gt;&lt;div&gt;15.207.49.80&lt;/div&gt;" style="sketch=0;outlineConnect=0;fontColor=#232F3E;gradientColor=none;strokeColor=#232F3E;fillColor=#ffffff;dashed=0;verticalLabelPosition=bottom;verticalAlign=top;align=center;html=1;fontSize=12;fontStyle=0;aspect=fixed;shape=mxgraph.aws4.resourceIcon;resIcon=mxgraph.aws4.nat_gateway;" vertex="1" parent="xi5EtomZvlvR07hGLBp--19">
          <mxGeometry x="331" width="42" height="42" as="geometry" />
        </mxCell>
        <mxCell id="xi5EtomZvlvR07hGLBp--21" value="hf_mgmt_rtb_public" style="sketch=0;outlineConnect=0;fontColor=#232F3E;gradientColor=none;strokeColor=#232F3E;fillColor=#ffffff;dashed=0;verticalLabelPosition=bottom;verticalAlign=top;align=center;html=1;fontSize=12;fontStyle=0;aspect=fixed;shape=mxgraph.aws4.resourceIcon;resIcon=mxgraph.aws4.route_table;" vertex="1" parent="xi5EtomZvlvR07hGLBp--19">
          <mxGeometry x="310" y="310" width="60" height="60" as="geometry" />
        </mxCell>
        <mxCell id="xi5EtomZvlvR07hGLBp--22" value="hf_mgmt_public_subnet_1a /1b&lt;br&gt;10.50.1.0/24&amp;nbsp; /&amp;nbsp; 10.50.2.0/24" style="points=[[0,0],[0.25,0],[0.5,0],[0.75,0],[1,0],[1,0.25],[1,0.5],[1,0.75],[1,1],[0.75,1],[0.5,1],[0.25,1],[0,1],[0,0.75],[0,0.5],[0,0.25]];outlineConnect=0;gradientColor=none;html=1;whiteSpace=wrap;fontSize=12;fontStyle=0;container=1;pointerEvents=0;collapsible=0;recursiveResize=0;shape=mxgraph.aws4.group;grIcon=mxgraph.aws4.group_security_group;grStroke=0;strokeColor=#248814;fillColor=#E9F3E6;verticalAlign=top;align=left;spacingLeft=30;fontColor=#248814;dashed=0;" vertex="1" parent="xi5EtomZvlvR07hGLBp--18">
          <mxGeometry x="600" y="460" width="320" height="230" as="geometry" />
        </mxCell>
        <mxCell id="xi5EtomZvlvR07hGLBp--23" value="hf_mgmt_private_subnet_1a / 1b&amp;nbsp; 10.50.3.0/24&amp;nbsp; /&amp;nbsp; 10.50.4.0/24" style="points=[[0,0],[0.25,0],[0.5,0],[0.75,0],[1,0],[1,0.25],[1,0.5],[1,0.75],[1,1],[0.75,1],[0.5,1],[0.25,1],[0,1],[0,0.75],[0,0.5],[0,0.25]];outlineConnect=0;gradientColor=none;html=1;whiteSpace=wrap;fontSize=12;fontStyle=0;container=1;pointerEvents=0;collapsible=0;recursiveResize=0;shape=mxgraph.aws4.group;grIcon=mxgraph.aws4.group_security_group;grStroke=0;strokeColor=#147EBA;fillColor=#E6F2F8;verticalAlign=top;align=left;spacingLeft=30;fontColor=#147EBA;dashed=0;" vertex="1" parent="xi5EtomZvlvR07hGLBp--18">
          <mxGeometry x="40" y="772" width="1480" height="198" as="geometry" />
        </mxCell>
        <mxCell id="xi5EtomZvlvR07hGLBp--24" value="hf_mgmt_rtb_private" style="sketch=0;outlineConnect=0;fontColor=#232F3E;gradientColor=none;strokeColor=#232F3E;fillColor=#ffffff;dashed=0;verticalLabelPosition=bottom;verticalAlign=top;align=center;html=1;fontSize=12;fontStyle=0;aspect=fixed;shape=mxgraph.aws4.resourceIcon;resIcon=mxgraph.aws4.route_table;" vertex="1" parent="xi5EtomZvlvR07hGLBp--23">
          <mxGeometry x="1393" y="117" width="60" height="60" as="geometry" />
        </mxCell>
        <mxCell id="xi5EtomZvlvR07hGLBp--25" value="hf_mgmt_igw" style="sketch=0;outlineConnect=0;fontColor=#232F3E;gradientColor=none;strokeColor=#232F3E;fillColor=#ffffff;dashed=0;verticalLabelPosition=bottom;verticalAlign=top;align=center;html=1;fontSize=12;fontStyle=0;aspect=fixed;shape=mxgraph.aws4.resourceIcon;resIcon=mxgraph.aws4.internet_gateway;" vertex="1" parent="xi5EtomZvlvR07hGLBp--18">
          <mxGeometry x="1490" y="10" width="60" height="60" as="geometry" />
        </mxCell>
        <mxCell id="xi5EtomZvlvR07hGLBp--26" value="VPN Server" style="sketch=0;outlineConnect=0;fontColor=#232F3E;gradientColor=none;strokeColor=#ffffff;fillColor=#232F3E;dashed=0;verticalLabelPosition=middle;verticalAlign=bottom;align=center;html=1;whiteSpace=wrap;fontSize=10;fontStyle=1;spacing=3;shape=mxgraph.aws4.productIcon;prIcon=mxgraph.aws4.ec2;" vertex="1" parent="1">
          <mxGeometry x="320" y="-1280" width="80" height="110" as="geometry" />
        </mxCell>
        <mxCell id="xi5EtomZvlvR07hGLBp--27" value="Port : graphana and promethius" style="rounded=0;orthogonalLoop=1;jettySize=auto;html=1;strokeColor=#00CC00;strokeWidth=2;" edge="1" parent="1" source="xi5EtomZvlvR07hGLBp--26" target="xi5EtomZvlvR07hGLBp--39">
          <mxGeometry x="0.2393" relative="1" as="geometry">
            <mxPoint as="offset" />
          </mxGeometry>
        </mxCell>
        <mxCell id="xi5EtomZvlvR07hGLBp--28" value="Port : logstash" style="rounded=0;orthogonalLoop=1;jettySize=auto;html=1;strokeColor=#00CC00;strokeWidth=2;" edge="1" parent="1" source="xi5EtomZvlvR07hGLBp--26" target="xi5EtomZvlvR07hGLBp--38">
          <mxGeometry x="-0.0201" relative="1" as="geometry">
            <mxPoint as="offset" />
          </mxGeometry>
        </mxCell>
        <mxCell id="xi5EtomZvlvR07hGLBp--29" value="&lt;span style=&quot;color: rgb(0 , 0 , 0) ; font-family: &amp;#34;helvetica&amp;#34; ; font-size: 11px ; font-style: normal ; font-weight: 400 ; letter-spacing: normal ; text-align: center ; text-indent: 0px ; text-transform: none ; word-spacing: 0px ; background-color: rgb(255 , 255 , 255) ; display: inline ; float: none&quot;&gt;Port: SSH&lt;/span&gt;" style="rounded=0;orthogonalLoop=1;jettySize=auto;html=1;endArrow=none;strokeColor=#00CC00;strokeWidth=2;edgeStyle=orthogonalEdgeStyle;" edge="1" parent="1">
          <mxGeometry x="-0.1639" relative="1" as="geometry">
            <mxPoint x="363" y="-1170" as="sourcePoint" />
            <mxPoint x="363" y="-1048" as="targetPoint" />
            <mxPoint as="offset" />
            <Array as="points">
              <mxPoint x="363" y="-1099" />
              <mxPoint x="363" y="-1099" />
            </Array>
          </mxGeometry>
        </mxCell>
        <mxCell id="xi5EtomZvlvR07hGLBp--30" style="rounded=0;orthogonalLoop=1;jettySize=auto;html=1;strokeColor=#00CC00;strokeWidth=2;" edge="1" parent="1" source="xi5EtomZvlvR07hGLBp--26" target="xi5EtomZvlvR07hGLBp--35">
          <mxGeometry relative="1" as="geometry" />
        </mxCell>
        <mxCell id="xi5EtomZvlvR07hGLBp--31" value="Port : Elastic stack" style="edgeLabel;html=1;align=center;verticalAlign=middle;resizable=0;points=[];" vertex="1" connectable="0" parent="xi5EtomZvlvR07hGLBp--30">
          <mxGeometry x="0.2747" y="3" relative="1" as="geometry">
            <mxPoint as="offset" />
          </mxGeometry>
        </mxCell>
        <mxCell id="xi5EtomZvlvR07hGLBp--32" value="Auto Scaling group" style="points=[[0,0],[0.25,0],[0.5,0],[0.75,0],[1,0],[1,0.25],[1,0.5],[1,0.75],[1,1],[0.75,1],[0.5,1],[0.25,1],[0,1],[0,0.75],[0,0.5],[0,0.25]];outlineConnect=0;gradientColor=none;html=1;whiteSpace=wrap;fontSize=12;fontStyle=0;container=1;pointerEvents=0;collapsible=0;recursiveResize=0;shape=mxgraph.aws4.groupCenter;grIcon=mxgraph.aws4.group_auto_scaling_group;grStroke=1;strokeColor=#D86613;fillColor=none;verticalAlign=top;align=center;fontColor=#D86613;dashed=1;spacingTop=25;" vertex="1" parent="1">
          <mxGeometry x="295" y="-1048" width="130" height="166" as="geometry" />
        </mxCell>
        <mxCell id="xi5EtomZvlvR07hGLBp--33" value="Bastion Server" style="sketch=0;outlineConnect=0;fontColor=#232F3E;gradientColor=none;strokeColor=#ffffff;fillColor=#232F3E;dashed=0;verticalLabelPosition=middle;verticalAlign=bottom;align=center;html=1;whiteSpace=wrap;fontSize=10;fontStyle=1;spacing=3;shape=mxgraph.aws4.productIcon;prIcon=mxgraph.aws4.ec2;" vertex="1" parent="1">
          <mxGeometry x="320" y="-1000" width="80" height="110" as="geometry" />
        </mxCell>
        <mxCell id="xi5EtomZvlvR07hGLBp--34" value="Auto Scaling group" style="points=[[0,0],[0.25,0],[0.5,0],[0.75,0],[1,0],[1,0.25],[1,0.5],[1,0.75],[1,1],[0.75,1],[0.5,1],[0.25,1],[0,1],[0,0.75],[0,0.5],[0,0.25]];outlineConnect=0;gradientColor=none;html=1;whiteSpace=wrap;fontSize=12;fontStyle=0;container=1;pointerEvents=0;collapsible=0;recursiveResize=0;shape=mxgraph.aws4.groupCenter;grIcon=mxgraph.aws4.group_auto_scaling_group;grStroke=1;strokeColor=#D86613;fillColor=none;verticalAlign=top;align=center;fontColor=#D86613;dashed=1;spacingTop=25;" vertex="1" parent="1">
          <mxGeometry x="295" y="-768" width="130" height="167" as="geometry" />
        </mxCell>
        <mxCell id="xi5EtomZvlvR07hGLBp--35" value="Wazuh Server" style="sketch=0;outlineConnect=0;fontColor=#232F3E;gradientColor=none;strokeColor=#ffffff;fillColor=#232F3E;dashed=0;verticalLabelPosition=middle;verticalAlign=bottom;align=center;html=1;whiteSpace=wrap;fontSize=10;fontStyle=1;spacing=3;shape=mxgraph.aws4.productIcon;prIcon=mxgraph.aws4.ec2;" vertex="1" parent="1">
          <mxGeometry x="881" y="-721" width="80" height="110" as="geometry" />
        </mxCell>
        <mxCell id="xi5EtomZvlvR07hGLBp--36" value="Config Management&lt;br&gt;Server" style="sketch=0;outlineConnect=0;fontColor=#232F3E;gradientColor=none;strokeColor=#ffffff;fillColor=#232F3E;dashed=0;verticalLabelPosition=middle;verticalAlign=bottom;align=center;html=1;whiteSpace=wrap;fontSize=10;fontStyle=1;spacing=3;shape=mxgraph.aws4.productIcon;prIcon=mxgraph.aws4.ec2;" vertex="1" parent="1">
          <mxGeometry x="641" y="-721" width="80" height="120" as="geometry" />
        </mxCell>
        <mxCell id="xi5EtomZvlvR07hGLBp--37" value="Jenkins Server" style="sketch=0;outlineConnect=0;fontColor=#232F3E;gradientColor=none;strokeColor=#ffffff;fillColor=#232F3E;dashed=0;verticalLabelPosition=middle;verticalAlign=bottom;align=center;html=1;whiteSpace=wrap;fontSize=10;fontStyle=1;spacing=3;shape=mxgraph.aws4.productIcon;prIcon=mxgraph.aws4.ec2;" vertex="1" parent="1">
          <mxGeometry x="320" y="-721" width="80" height="110" as="geometry" />
        </mxCell>
        <mxCell id="xi5EtomZvlvR07hGLBp--38" value="Logstash&lt;br&gt;Server" style="sketch=0;outlineConnect=0;fontColor=#232F3E;gradientColor=none;strokeColor=#ffffff;fillColor=#232F3E;dashed=0;verticalLabelPosition=middle;verticalAlign=bottom;align=center;html=1;whiteSpace=wrap;fontSize=10;fontStyle=1;spacing=3;shape=mxgraph.aws4.productIcon;prIcon=mxgraph.aws4.ec2;" vertex="1" parent="1">
          <mxGeometry y="-721" width="80" height="110" as="geometry" />
        </mxCell>
        <mxCell id="xi5EtomZvlvR07hGLBp--39" value="Monitoring&amp;nbsp;&lt;br&gt;Server" style="sketch=0;outlineConnect=0;fontColor=#232F3E;gradientColor=none;strokeColor=#ffffff;fillColor=#232F3E;dashed=0;verticalLabelPosition=middle;verticalAlign=bottom;align=center;html=1;whiteSpace=wrap;fontSize=10;fontStyle=1;spacing=3;shape=mxgraph.aws4.productIcon;prIcon=mxgraph.aws4.ec2;" vertex="1" parent="1">
          <mxGeometry x="-240" y="-721" width="80" height="110" as="geometry" />
        </mxCell>
        <mxCell id="xi5EtomZvlvR07hGLBp--40" value="Auto Scaling group" style="points=[[0,0],[0.25,0],[0.5,0],[0.75,0],[1,0],[1,0.25],[1,0.5],[1,0.75],[1,1],[0.75,1],[0.5,1],[0.25,1],[0,1],[0,0.75],[0,0.5],[0,0.25]];outlineConnect=0;gradientColor=none;html=1;whiteSpace=wrap;fontSize=12;fontStyle=0;container=1;pointerEvents=0;collapsible=0;recursiveResize=0;shape=mxgraph.aws4.groupCenter;grIcon=mxgraph.aws4.group_auto_scaling_group;grStroke=1;strokeColor=#D86613;fillColor=none;verticalAlign=top;align=center;fontColor=#D86613;dashed=1;spacingTop=25;" vertex="1" parent="1">
          <mxGeometry x="856" y="-768" width="130" height="167" as="geometry" />
        </mxCell>
        <mxCell id="xi5EtomZvlvR07hGLBp--41" value="Auto Scaling group" style="points=[[0,0],[0.25,0],[0.5,0],[0.75,0],[1,0],[1,0.25],[1,0.5],[1,0.75],[1,1],[0.75,1],[0.5,1],[0.25,1],[0,1],[0,0.75],[0,0.5],[0,0.25]];outlineConnect=0;gradientColor=none;html=1;whiteSpace=wrap;fontSize=12;fontStyle=0;container=1;pointerEvents=0;collapsible=0;recursiveResize=0;shape=mxgraph.aws4.groupCenter;grIcon=mxgraph.aws4.group_auto_scaling_group;grStroke=1;strokeColor=#D86613;fillColor=none;verticalAlign=top;align=center;fontColor=#D86613;dashed=1;spacingTop=25;" vertex="1" parent="1">
          <mxGeometry x="-265" y="-767" width="130" height="167" as="geometry" />
        </mxCell>
        <mxCell id="xi5EtomZvlvR07hGLBp--42" value="Port : SSH&amp;nbsp;" style="rounded=0;orthogonalLoop=1;jettySize=auto;html=1;exitX=0.25;exitY=1;exitDx=0;exitDy=0;entryX=0.75;entryY=0;entryDx=0;entryDy=0;strokeColor=#FF66B3;strokeWidth=2;" edge="1" parent="1" source="xi5EtomZvlvR07hGLBp--48" target="xi5EtomZvlvR07hGLBp--8">
          <mxGeometry x="-0.3778" y="-5" relative="1" as="geometry">
            <mxPoint as="offset" />
          </mxGeometry>
        </mxCell>
        <mxCell id="xi5EtomZvlvR07hGLBp--43" value="Port : SSH" style="edgeStyle=none;rounded=0;orthogonalLoop=1;jettySize=auto;html=1;exitX=0.5;exitY=1;exitDx=0;exitDy=0;entryX=0.25;entryY=0;entryDx=0;entryDy=0;strokeColor=#FF66B3;strokeWidth=2;" edge="1" parent="1" source="xi5EtomZvlvR07hGLBp--48" target="xi5EtomZvlvR07hGLBp--9">
          <mxGeometry x="-0.3855" y="2" relative="1" as="geometry">
            <mxPoint as="offset" />
          </mxGeometry>
        </mxCell>
        <mxCell id="xi5EtomZvlvR07hGLBp--44" style="edgeStyle=orthogonalEdgeStyle;rounded=0;orthogonalLoop=1;jettySize=auto;html=1;exitX=0;exitY=1;exitDx=0;exitDy=0;entryX=1;entryY=1;entryDx=0;entryDy=0;strokeColor=#FF66B3;strokeWidth=2;" edge="1" parent="1" source="xi5EtomZvlvR07hGLBp--48" target="xi5EtomZvlvR07hGLBp--34">
          <mxGeometry relative="1" as="geometry">
            <Array as="points">
              <mxPoint x="616" y="-550" />
              <mxPoint x="425" y="-550" />
            </Array>
          </mxGeometry>
        </mxCell>
        <mxCell id="xi5EtomZvlvR07hGLBp--45" style="edgeStyle=orthogonalEdgeStyle;rounded=0;orthogonalLoop=1;jettySize=auto;html=1;exitX=1;exitY=1;exitDx=0;exitDy=0;entryX=0;entryY=1;entryDx=0;entryDy=0;strokeColor=#FF66B3;strokeWidth=2;" edge="1" parent="1" source="xi5EtomZvlvR07hGLBp--48" target="xi5EtomZvlvR07hGLBp--40">
          <mxGeometry relative="1" as="geometry">
            <Array as="points">
              <mxPoint x="746" y="-550" />
              <mxPoint x="856" y="-550" />
            </Array>
          </mxGeometry>
        </mxCell>
        <mxCell id="xi5EtomZvlvR07hGLBp--46" style="edgeStyle=orthogonalEdgeStyle;rounded=0;orthogonalLoop=1;jettySize=auto;html=1;exitX=0.25;exitY=1;exitDx=0;exitDy=0;entryX=0.75;entryY=1;entryDx=0;entryDy=0;strokeColor=#FF66B3;strokeWidth=2;" edge="1" parent="1" source="xi5EtomZvlvR07hGLBp--48" target="xi5EtomZvlvR07hGLBp--49">
          <mxGeometry relative="1" as="geometry">
            <Array as="points">
              <mxPoint x="649" y="-560" />
              <mxPoint x="76" y="-560" />
            </Array>
          </mxGeometry>
        </mxCell>
        <mxCell id="xi5EtomZvlvR07hGLBp--47" style="edgeStyle=orthogonalEdgeStyle;rounded=0;orthogonalLoop=1;jettySize=auto;html=1;exitX=0.5;exitY=1;exitDx=0;exitDy=0;entryX=0.75;entryY=1;entryDx=0;entryDy=0;fillColor=#FF0080;strokeColor=#FF66B3;strokeWidth=2;" edge="1" parent="1" source="xi5EtomZvlvR07hGLBp--48" target="xi5EtomZvlvR07hGLBp--41">
          <mxGeometry relative="1" as="geometry">
            <Array as="points">
              <mxPoint x="681" y="-570" />
              <mxPoint x="-167" y="-570" />
            </Array>
          </mxGeometry>
        </mxCell>
        <mxCell id="xi5EtomZvlvR07hGLBp--48" value="Auto Scaling group" style="points=[[0,0],[0.25,0],[0.5,0],[0.75,0],[1,0],[1,0.25],[1,0.5],[1,0.75],[1,1],[0.75,1],[0.5,1],[0.25,1],[0,1],[0,0.75],[0,0.5],[0,0.25]];outlineConnect=0;gradientColor=none;html=1;whiteSpace=wrap;fontSize=12;fontStyle=0;container=1;pointerEvents=0;collapsible=0;recursiveResize=0;shape=mxgraph.aws4.groupCenter;grIcon=mxgraph.aws4.group_auto_scaling_group;grStroke=1;strokeColor=#D86613;fillColor=none;verticalAlign=top;align=center;fontColor=#D86613;dashed=1;spacingTop=25;" vertex="1" parent="1">
          <mxGeometry x="616" y="-767" width="130" height="167" as="geometry" />
        </mxCell>
        <mxCell id="xi5EtomZvlvR07hGLBp--49" value="Auto Scaling group" style="points=[[0,0],[0.25,0],[0.5,0],[0.75,0],[1,0],[1,0.25],[1,0.5],[1,0.75],[1,1],[0.75,1],[0.5,1],[0.25,1],[0,1],[0,0.75],[0,0.5],[0,0.25]];outlineConnect=0;gradientColor=none;html=1;whiteSpace=wrap;fontSize=12;fontStyle=0;container=1;pointerEvents=0;collapsible=0;recursiveResize=0;shape=mxgraph.aws4.groupCenter;grIcon=mxgraph.aws4.group_auto_scaling_group;grStroke=1;strokeColor=#D86613;fillColor=none;verticalAlign=top;align=center;fontColor=#D86613;dashed=1;spacingTop=25;" vertex="1" parent="1">
          <mxGeometry x="-22" y="-767" width="130" height="167" as="geometry" />
        </mxCell>
        <mxCell id="xi5EtomZvlvR07hGLBp--50" value="Port: SSH" style="rounded=0;orthogonalLoop=1;jettySize=auto;html=1;strokeColor=#0066CC;strokeWidth=2;" edge="1" parent="1" source="xi5EtomZvlvR07hGLBp--33" target="xi5EtomZvlvR07hGLBp--37">
          <mxGeometry x="-0.4083" relative="1" as="geometry">
            <Array as="points">
              <mxPoint x="360" y="-790" />
            </Array>
            <mxPoint y="1" as="offset" />
          </mxGeometry>
        </mxCell>
        <mxCell id="xi5EtomZvlvR07hGLBp--51" value="Port : SSH" style="rounded=0;orthogonalLoop=1;jettySize=auto;html=1;strokeColor=#0066CC;strokeWidth=2;" edge="1" parent="1" source="xi5EtomZvlvR07hGLBp--33" target="xi5EtomZvlvR07hGLBp--36">
          <mxGeometry relative="1" as="geometry" />
        </mxCell>
        <mxCell id="xi5EtomZvlvR07hGLBp--52" value="Port : SSH" style="rounded=0;orthogonalLoop=1;jettySize=auto;html=1;strokeColor=#0066CC;strokeWidth=2;" edge="1" parent="1" source="xi5EtomZvlvR07hGLBp--33" target="xi5EtomZvlvR07hGLBp--35">
          <mxGeometry relative="1" as="geometry" />
        </mxCell>
        <mxCell id="xi5EtomZvlvR07hGLBp--53" value="Port : SSH" style="edgeStyle=none;rounded=0;orthogonalLoop=1;jettySize=auto;html=1;strokeColor=#0066CC;strokeWidth=2;" edge="1" parent="1" source="xi5EtomZvlvR07hGLBp--33" target="xi5EtomZvlvR07hGLBp--38">
          <mxGeometry relative="1" as="geometry" />
        </mxCell>
        <mxCell id="xi5EtomZvlvR07hGLBp--54" value="Port : SSH" style="edgeStyle=none;rounded=0;orthogonalLoop=1;jettySize=auto;html=1;strokeColor=#0066CC;strokeWidth=2;" edge="1" parent="1" source="xi5EtomZvlvR07hGLBp--33" target="xi5EtomZvlvR07hGLBp--39">
          <mxGeometry relative="1" as="geometry" />
        </mxCell>
        <mxCell id="xi5EtomZvlvR07hGLBp--55" value="hf_prod_public_subnet_1a /1b&lt;br&gt;10.10.10.0/24&amp;nbsp; /&amp;nbsp; 10.10.11.0/24" style="points=[[0,0],[0.25,0],[0.5,0],[0.75,0],[1,0],[1,0.25],[1,0.5],[1,0.75],[1,1],[0.75,1],[0.5,1],[0.25,1],[0,1],[0,0.75],[0,0.5],[0,0.25]];outlineConnect=0;gradientColor=none;html=1;whiteSpace=wrap;fontSize=12;fontStyle=0;container=1;pointerEvents=0;collapsible=0;recursiveResize=0;shape=mxgraph.aws4.group;grIcon=mxgraph.aws4.group_security_group;grStroke=0;strokeColor=#248814;fillColor=#E9F3E6;verticalAlign=top;align=left;spacingLeft=30;fontColor=#248814;dashed=0;" vertex="1" parent="1">
          <mxGeometry x="200" y="-190" width="320" height="230" as="geometry" />
        </mxCell>
        <mxCell id="xi5EtomZvlvR07hGLBp--56" value="&lt;div&gt;hf_prod_nat_1a / 1b&lt;/div&gt;&lt;div&gt;65.0.82.152&lt;/div&gt;&lt;div&gt;65.1.119.117&lt;/div&gt;" style="sketch=0;outlineConnect=0;fontColor=#232F3E;gradientColor=none;strokeColor=#232F3E;fillColor=#ffffff;dashed=0;verticalLabelPosition=bottom;verticalAlign=top;align=center;html=1;fontSize=12;fontStyle=0;aspect=fixed;shape=mxgraph.aws4.resourceIcon;resIcon=mxgraph.aws4.nat_gateway;" vertex="1" parent="xi5EtomZvlvR07hGLBp--55">
          <mxGeometry x="230" width="50" height="50" as="geometry" />
        </mxCell>
        <mxCell id="xi5EtomZvlvR07hGLBp--57" value="hf_prod_rtb_public" style="sketch=0;outlineConnect=0;fontColor=#232F3E;gradientColor=none;strokeColor=#232F3E;fillColor=#ffffff;dashed=0;verticalLabelPosition=bottom;verticalAlign=top;align=center;html=1;fontSize=12;fontStyle=0;aspect=fixed;shape=mxgraph.aws4.resourceIcon;resIcon=mxgraph.aws4.route_table;" vertex="1" parent="xi5EtomZvlvR07hGLBp--55">
          <mxGeometry x="130" y="150" width="60" height="60" as="geometry" />
        </mxCell>
        <mxCell id="xi5EtomZvlvR07hGLBp--58" value="Port : Logging" style="edgeStyle=none;rounded=0;orthogonalLoop=1;jettySize=auto;html=1;fillColor=#6666FF;strokeWidth=2;" edge="1" parent="1" source="xi5EtomZvlvR07hGLBp--8" target="xi5EtomZvlvR07hGLBp--38">
          <mxGeometry x="0.1295" y="1" relative="1" as="geometry">
            <mxPoint as="offset" />
          </mxGeometry>
        </mxCell>
        <mxCell id="xi5EtomZvlvR07hGLBp--59" style="edgeStyle=none;rounded=0;orthogonalLoop=1;jettySize=auto;html=1;fillColor=#6666FF;strokeWidth=2;" edge="1" parent="1" source="xi5EtomZvlvR07hGLBp--9">
          <mxGeometry relative="1" as="geometry">
            <mxPoint x="40" y="-610" as="targetPoint" />
          </mxGeometry>
        </mxCell>
        <mxCell id="xi5EtomZvlvR07hGLBp--60" value="Port : Logging" style="edgeLabel;html=1;align=center;verticalAlign=middle;resizable=0;points=[];" connectable="0" vertex="1" parent="xi5EtomZvlvR07hGLBp--59">
          <mxGeometry x="0.5429" relative="1" as="geometry">
            <mxPoint as="offset" />
          </mxGeometry>
        </mxCell>
        <mxCell id="xi5EtomZvlvR07hGLBp--61" value="Port : Wazuh manager" style="edgeStyle=none;rounded=0;orthogonalLoop=1;jettySize=auto;html=1;strokeColor=#FF9933;strokeWidth=2;" edge="1" parent="1" source="xi5EtomZvlvR07hGLBp--9">
          <mxGeometry x="0.3604" y="-6" relative="1" as="geometry">
            <mxPoint x="920" y="-600" as="targetPoint" />
            <mxPoint as="offset" />
          </mxGeometry>
        </mxCell>
        <mxCell id="xi5EtomZvlvR07hGLBp--62" value="" style="rounded=0;orthogonalLoop=1;jettySize=auto;html=1;entryX=0.5;entryY=0;entryDx=0;entryDy=0;strokeColor=#FF0000;strokeWidth=2;" edge="1" parent="1" source="xi5EtomZvlvR07hGLBp--66" target="xi5EtomZvlvR07hGLBp--8">
          <mxGeometry x="-0.6318" y="119" relative="1" as="geometry">
            <mxPoint as="offset" />
          </mxGeometry>
        </mxCell>
        <mxCell id="xi5EtomZvlvR07hGLBp--63" value="Port : Ironbank" style="edgeLabel;html=1;align=center;verticalAlign=middle;resizable=0;points=[];" connectable="0" vertex="1" parent="xi5EtomZvlvR07hGLBp--62">
          <mxGeometry x="0.2254" y="2" relative="1" as="geometry">
            <mxPoint as="offset" />
          </mxGeometry>
        </mxCell>
        <mxCell id="xi5EtomZvlvR07hGLBp--64" style="rounded=0;orthogonalLoop=1;jettySize=auto;html=1;entryX=0.5;entryY=0;entryDx=0;entryDy=0;strokeColor=#FF0000;strokeWidth=2;" edge="1" parent="1" source="xi5EtomZvlvR07hGLBp--66" target="xi5EtomZvlvR07hGLBp--9">
          <mxGeometry relative="1" as="geometry" />
        </mxCell>
        <mxCell id="xi5EtomZvlvR07hGLBp--65" value="Port : Nimbus" style="edgeLabel;html=1;align=center;verticalAlign=middle;resizable=0;points=[];" connectable="0" vertex="1" parent="xi5EtomZvlvR07hGLBp--64">
          <mxGeometry x="0.2422" y="-4" relative="1" as="geometry">
            <mxPoint y="-1" as="offset" />
          </mxGeometry>
        </mxCell>
        <mxCell id="xi5EtomZvlvR07hGLBp--66" value="hf-alb-prod" style="outlineConnect=0;dashed=0;verticalLabelPosition=bottom;verticalAlign=top;align=center;html=1;shape=mxgraph.aws3.application_load_balancer;fillColor=#F58534;gradientColor=none;" vertex="1" parent="1">
          <mxGeometry x="320" y="-150" width="80" height="80" as="geometry" />
        </mxCell>
        <mxCell id="xi5EtomZvlvR07hGLBp--67" value="VPC Peering" style="outlineConnect=0;dashed=0;verticalLabelPosition=bottom;verticalAlign=top;align=center;html=1;shape=mxgraph.aws3.vpc_peering;fillColor=#F58534;gradientColor=none;" vertex="1" parent="1">
          <mxGeometry x="320" y="-500" width="80" height="80" as="geometry" />
        </mxCell>
        <mxCell id="xi5EtomZvlvR07hGLBp--68" value="Port : https" style="edgeStyle=none;rounded=0;orthogonalLoop=1;jettySize=auto;html=1;entryX=0.5;entryY=0;entryDx=0;entryDy=0;" edge="1" parent="1" source="xi5EtomZvlvR07hGLBp--69" target="xi5EtomZvlvR07hGLBp--71">
          <mxGeometry relative="1" as="geometry" />
        </mxCell>
        <mxCell id="xi5EtomZvlvR07hGLBp--69" value="hf-alb-mgmt" style="outlineConnect=0;dashed=0;verticalLabelPosition=bottom;verticalAlign=top;align=center;html=1;shape=mxgraph.aws3.application_load_balancer;fillColor=#F58534;gradientColor=none;" vertex="1" parent="1">
          <mxGeometry x="319" y="-1510" width="80" height="80" as="geometry" />
        </mxCell>
        <mxCell id="xi5EtomZvlvR07hGLBp--70" value="Port : Jenkins" style="edgeStyle=orthogonalEdgeStyle;rounded=0;orthogonalLoop=1;jettySize=auto;html=1;exitX=1;exitY=0.75;exitDx=0;exitDy=0;entryX=1;entryY=0.25;entryDx=0;entryDy=0;strokeColor=#80FF00;strokeWidth=2;fillColor=#6666FF;" edge="1" parent="1" source="xi5EtomZvlvR07hGLBp--71" target="xi5EtomZvlvR07hGLBp--34">
          <mxGeometry x="0.4861" relative="1" as="geometry">
            <mxPoint as="offset" />
          </mxGeometry>
        </mxCell>
        <mxCell id="xi5EtomZvlvR07hGLBp--71" value="Auto Scaling group" style="points=[[0,0],[0.25,0],[0.5,0],[0.75,0],[1,0],[1,0.25],[1,0.5],[1,0.75],[1,1],[0.75,1],[0.5,1],[0.25,1],[0,1],[0,0.75],[0,0.5],[0,0.25]];outlineConnect=0;gradientColor=none;html=1;whiteSpace=wrap;fontSize=12;fontStyle=0;container=1;pointerEvents=0;collapsible=0;recursiveResize=0;shape=mxgraph.aws4.groupCenter;grIcon=mxgraph.aws4.group_auto_scaling_group;grStroke=1;strokeColor=#D86613;fillColor=none;verticalAlign=top;align=center;fontColor=#D86613;dashed=1;spacingTop=25;" vertex="1" parent="1">
          <mxGeometry x="294" y="-1326" width="130" height="160" as="geometry" />
        </mxCell>
        <mxCell id="xi5EtomZvlvR07hGLBp--72" value="&lt;div&gt;&lt;span&gt;Graphana : 3000&lt;/span&gt;&lt;/div&gt;&lt;div&gt;&lt;span&gt;Promethius : 9090&lt;/span&gt;&lt;/div&gt;" style="text;html=1;align=left;verticalAlign=middle;resizable=0;points=[];autosize=1;strokeColor=none;fillColor=none;" vertex="1" parent="1">
          <mxGeometry x="1280" y="-1399" width="130" height="30" as="geometry" />
        </mxCell>
        <mxCell id="xi5EtomZvlvR07hGLBp--73" value="Mysql : 3306" style="text;html=1;align=left;verticalAlign=middle;resizable=0;points=[];autosize=1;strokeColor=none;fillColor=none;" vertex="1" parent="1">
          <mxGeometry x="1280" y="-1359" width="90" height="20" as="geometry" />
        </mxCell>
        <mxCell id="xi5EtomZvlvR07hGLBp--74" value="&lt;div&gt;&lt;span&gt;Ironabnk : 8080&lt;/span&gt;&lt;/div&gt;&lt;div&gt;&lt;span&gt;Nimbus : 5000&lt;/span&gt;&lt;/div&gt;" style="text;html=1;align=left;verticalAlign=middle;resizable=0;points=[];autosize=1;strokeColor=none;fillColor=none;" vertex="1" parent="1">
          <mxGeometry x="1280" y="-1339" width="110" height="30" as="geometry" />
        </mxCell>
        <mxCell id="xi5EtomZvlvR07hGLBp--75" value="Wazuh manager&lt;br&gt;&lt;ol&gt;&lt;li&gt;1514 TCP&lt;/li&gt;&lt;li&gt;1514 UDP&lt;/li&gt;&lt;li&gt;1516 TCP&lt;/li&gt;&lt;li&gt;514 TCP&lt;/li&gt;&lt;li&gt;514 UDP&lt;/li&gt;&lt;li&gt;55000 TCP&lt;/li&gt;&lt;/ol&gt;Elastic stack&lt;br&gt;&lt;ol&gt;&lt;li&gt;9200 TCP&lt;/li&gt;&lt;li&gt;9300-9400 TCP&lt;/li&gt;&lt;li&gt;443 TCP&lt;/li&gt;&lt;/ol&gt;" style="text;html=1;align=left;verticalAlign=middle;resizable=0;points=[];autosize=1;strokeColor=none;fillColor=none;" vertex="1" parent="1">
          <mxGeometry x="1280" y="-1304" width="150" height="210" as="geometry" />
        </mxCell>
        <mxCell id="xi5EtomZvlvR07hGLBp--76" value="Vpn :&amp;nbsp;&lt;br&gt;&lt;ol&gt;&lt;li&gt;15762 UDP&lt;/li&gt;&lt;li&gt;443 HTTPS&lt;/li&gt;&lt;/ol&gt;" style="text;html=1;align=left;verticalAlign=middle;resizable=0;points=[];autosize=1;strokeColor=none;fillColor=none;" vertex="1" parent="1">
          <mxGeometry x="1280" y="-1094" width="120" height="70" as="geometry" />
        </mxCell>
        <mxCell id="xi5EtomZvlvR07hGLBp--77" value="Logstash&amp;nbsp;&lt;br&gt;&lt;ol&gt;&lt;li&gt;5044 TCP&lt;/li&gt;&lt;li&gt;10514 TCP&lt;/li&gt;&lt;li&gt;514 TCP&lt;/li&gt;&lt;/ol&gt;" style="text;html=1;align=left;verticalAlign=middle;resizable=0;points=[];autosize=1;strokeColor=none;fillColor=none;" vertex="1" parent="1">
          <mxGeometry x="1280" y="-1024" width="120" height="90" as="geometry" />
        </mxCell>
        <mxCell id="xi5EtomZvlvR07hGLBp--78" value="Salt master" style="text;html=1;align=left;verticalAlign=middle;resizable=0;points=[];autosize=1;strokeColor=none;fillColor=none;" vertex="1" parent="1">
          <mxGeometry x="1280" y="-934" width="80" height="20" as="geometry" />
        </mxCell>
        <mxCell id="xi5EtomZvlvR07hGLBp--79" value="Jenkins : 8080" style="text;html=1;align=left;verticalAlign=middle;resizable=0;points=[];autosize=1;strokeColor=none;fillColor=none;" vertex="1" parent="1">
          <mxGeometry x="1280" y="-914" width="100" height="20" as="geometry" />
        </mxCell>
        <mxCell id="xi5EtomZvlvR07hGLBp--80" value="SSH : 4382" style="text;html=1;align=left;verticalAlign=middle;resizable=0;points=[];autosize=1;strokeColor=none;fillColor=none;" vertex="1" parent="1">
          <mxGeometry x="1280" y="-894" width="80" height="20" as="geometry" />
        </mxCell>
        <mxCell id="xi5EtomZvlvR07hGLBp--81" value="Port : Wazuh manager" style="edgeStyle=none;rounded=0;orthogonalLoop=1;jettySize=auto;html=1;strokeColor=#FF9933;strokeWidth=2;" edge="1" parent="1" source="xi5EtomZvlvR07hGLBp--8">
          <mxGeometry x="0.2235" y="-4" relative="1" as="geometry">
            <mxPoint x="910" y="-600" as="targetPoint" />
            <mxPoint as="offset" />
          </mxGeometry>
        </mxCell>
        <mxCell id="xi5EtomZvlvR07hGLBp--82" value="AWS S3" style="outlineConnect=0;dashed=0;verticalLabelPosition=bottom;verticalAlign=top;align=center;html=1;shape=mxgraph.aws3.s3;fillColor=#E05243;gradientColor=none;" vertex="1" parent="1">
          <mxGeometry x="-280" y="-440" width="76.5" height="93" as="geometry" />
        </mxCell>
        <mxCell id="xi5EtomZvlvR07hGLBp--83" value="Code Pipeline" style="outlineConnect=0;dashed=0;verticalLabelPosition=bottom;verticalAlign=top;align=center;html=1;shape=mxgraph.aws3.codepipeline;fillColor=#759C3E;gradientColor=none;" vertex="1" parent="1">
          <mxGeometry x="-380" y="-440" width="67.5" height="81" as="geometry" />
        </mxCell>
        <mxCell id="xi5EtomZvlvR07hGLBp--84" value="Code Deploy" style="outlineConnect=0;dashed=0;verticalLabelPosition=bottom;verticalAlign=top;align=center;html=1;shape=mxgraph.aws3.codedeploy;fillColor=#759C3E;gradientColor=none;" vertex="1" parent="1">
          <mxGeometry x="-510" y="-440" width="67.5" height="81" as="geometry" />
        </mxCell>
        <mxCell id="xi5EtomZvlvR07hGLBp--85" value="SES" style="outlineConnect=0;dashed=0;verticalLabelPosition=bottom;verticalAlign=top;align=center;html=1;shape=mxgraph.aws3.ses;fillColor=#D9A741;gradientColor=none;" vertex="1" parent="1">
          <mxGeometry x="-640" y="-452" width="79.5" height="93" as="geometry" />
        </mxCell>
        <mxCell id="xi5EtomZvlvR07hGLBp--86" value="SNS" style="outlineConnect=0;dashed=0;verticalLabelPosition=bottom;verticalAlign=top;align=center;html=1;shape=mxgraph.aws3.sns;fillColor=#D9A741;gradientColor=none;" vertex="1" parent="1">
          <mxGeometry x="-770" y="-431.75" width="76.5" height="76.5" as="geometry" />
        </mxCell>
        <mxCell id="xi5EtomZvlvR07hGLBp--87" value="System Manager" style="outlineConnect=0;dashed=0;verticalLabelPosition=bottom;verticalAlign=top;align=center;html=1;shape=mxgraph.aws3.ec2_systems_manager;fillColor=#759C3E;gradientColor=none;" vertex="1" parent="1">
          <mxGeometry x="-160" y="-430" width="79.5" height="82.5" as="geometry" />
        </mxCell>
      </root>
    </mxGraphModel>
  </diagram>
</mxfile>
